<?xml version="1.0" encoding="UTF-8" standalone="no"?>
<!DOCTYPE svg PUBLIC "-//W3C//DTD SVG 1.1//EN"
 "http://www.w3.org/Graphics/SVG/1.1/DTD/svg11.dtd">
<!-- Generated by graphviz version 2.38.0 (20140413.2041)
 -->
<!-- Title: g Pages: 1 -->
<svg width="1037pt" height="478pt"
 viewBox="0.00 0.00 1036.52 477.74" xmlns="http://www.w3.org/2000/svg" xmlns:xlink="http://www.w3.org/1999/xlink">
<g id="graph0" class="graph" transform="scale(1 1) rotate(0) translate(4 473.742)">
<title>g</title>
<polygon fill="white" stroke="none" points="-4,4 -4,-473.742 1032.52,-473.742 1032.52,4 -4,4"/>
<!-- node0 -->
<g id="node1" class="node"><title>node0</title>
<polygon fill="none" stroke="black" points="0,-292.5 0,-390.703 188.533,-390.703 188.533,-292.5 0,-292.5"/>
<text text-anchor="start" x="8" y="-378.703" font-family="Menlo" font-size="10.00">Normal node &#45; 0.0.0.0/0 </text>
<polyline fill="none" stroke="black" points="0,-371.062 188.533,-371.062 "/>
<text text-anchor="start" x="8" y="-359.062" font-family="Menlo" font-size="10.00">internal &#160;</text>
<polyline fill="none" stroke="black" points="76.2051,-351.422 76.2051,-371.062 "/>
<text text-anchor="end" x="180.533" y="-359.062" font-family="Menlo" font-size="10.00">1000000000000000</text>
<polyline fill="none" stroke="black" points="0,-351.422 188.533,-351.422 "/>
<text text-anchor="start" x="8" y="-339.422" font-family="Menlo" font-size="10.00">external &#160;</text>
<polyline fill="none" stroke="black" points="76.2051,-331.781 76.2051,-351.422 "/>
<text text-anchor="end" x="180.533" y="-339.422" font-family="Menlo" font-size="10.00">1000000000101000</text>
<polyline fill="none" stroke="black" points="0,-331.781 188.533,-331.781 "/>
<text text-anchor="start" x="8" y="-319.781" font-family="Menlo" font-size="10.00">child_ptr </text>
<polyline fill="none" stroke="black" points="115.205,-312.141 115.205,-331.781 "/>
<text text-anchor="end" x="180.267" y="-319.781" font-family="Menlo" font-size="10.00">0x0</text>
<polyline fill="none" stroke="black" points="0,-312.141 188.533,-312.141 "/>
<text text-anchor="start" x="8" y="-300.141" font-family="Menlo" font-size="10.00">result_ptr</text>
<polyline fill="none" stroke="black" points="115.205,-292.5 115.205,-312.141 "/>
<text text-anchor="end" x="180.267" y="-300.141" font-family="Menlo" font-size="10.00">0x0</text>
</g>
<!-- node1 -->
<g id="node2" class="node"><title>node1</title>
<polygon fill="none" stroke="black" points="224.533,-312.5 224.533,-410.703 413.066,-410.703 413.066,-312.5 224.533,-312.5"/>
<text text-anchor="start" x="232.533" y="-398.703" font-family="Menlo" font-size="10.00">END node &#45; 0.0.0.0/4 </text>
<polyline fill="none" stroke="black" points="224.533,-391.062 413.066,-391.062 "/>
<text text-anchor="start" x="232.533" y="-379.062" font-family="Menlo" font-size="10.00">internal &#160;</text>
<polyline fill="none" stroke="black" points="300.738,-371.422 300.738,-391.062 "/>
<text text-anchor="end" x="405.066" y="-379.062" font-family="Menlo" font-size="10.00">0000000000000001</text>
<polyline fill="none" stroke="black" points="224.533,-371.422 413.066,-371.422 "/>
<text text-anchor="start" x="232.533" y="-359.422" font-family="Menlo" font-size="10.00">internal2 </text>
<polyline fill="none" stroke="black" points="300.738,-351.781 300.738,-371.422 "/>
<text text-anchor="end" x="405.066" y="-359.422" font-family="Menlo" font-size="10.00">0000000000100000</text>
<polyline fill="none" stroke="black" points="224.533,-351.781 413.066,-351.781 "/>
<text text-anchor="start" x="232.533" y="-339.781" font-family="Menlo" font-size="10.00">child_ptr </text>
<polyline fill="none" stroke="black" points="339.738,-332.141 339.738,-351.781 "/>
<text text-anchor="end" x="404.8" y="-339.781" font-family="Menlo" font-size="10.00">NUL</text>
<polyline fill="none" stroke="black" points="224.533,-332.141 413.066,-332.141 "/>
<text text-anchor="start" x="232.533" y="-320.141" font-family="Menlo" font-size="10.00">result_ptr</text>
<polyline fill="none" stroke="black" points="339.738,-312.5 339.738,-332.141 "/>
<text text-anchor="end" x="404.8" y="-320.141" font-family="Menlo" font-size="10.00">0x1</text>
</g>
<!-- node0&#45;&gt;node1 -->
<g id="edge1" class="edge"><title>node0:external&#45;&gt;node1:descr</title>
<path fill="none" stroke="black" d="M188.533,-341.602C214.932,-341.602 199.859,-385.175 214.593,-397.429"/>
<polygon fill="black" stroke="black" points="213.942,-400.896 224.533,-400.602 216.071,-394.227 213.942,-400.896"/>
</g>
<!-- node2 -->
<g id="node3" class="node"><title>node2</title>
<polygon fill="none" stroke="black" points="224.533,-195.5 224.533,-293.703 413.066,-293.703 413.066,-195.5 224.533,-195.5"/>
<text text-anchor="start" x="232.533" y="-281.703" font-family="Menlo" font-size="10.00">Normal node &#45; 160.0.0.0/4 </text>
<polyline fill="none" stroke="black" points="224.533,-274.062 413.066,-274.062 "/>
<text text-anchor="start" x="232.533" y="-262.062" font-family="Menlo" font-size="10.00">internal &#160;</text>
<polyline fill="none" stroke="black" points="300.738,-254.422 300.738,-274.062 "/>
<text text-anchor="end" x="405.066" y="-262.062" font-family="Menlo" font-size="10.00">0000000000000000</text>
<polyline fill="none" stroke="black" points="224.533,-254.422 413.066,-254.422 "/>
<text text-anchor="start" x="232.533" y="-242.422" font-family="Menlo" font-size="10.00">external &#160;</text>
<polyline fill="none" stroke="black" points="300.738,-234.781 300.738,-254.422 "/>
<text text-anchor="end" x="405.066" y="-242.422" font-family="Menlo" font-size="10.00">0000000000001000</text>
<polyline fill="none" stroke="black" points="224.533,-234.781 413.066,-234.781 "/>
<text text-anchor="start" x="232.533" y="-222.781" font-family="Menlo" font-size="10.00">child_ptr </text>
<polyline fill="none" stroke="black" points="339.738,-215.141 339.738,-234.781 "/>
<text text-anchor="end" x="404.8" y="-222.781" font-family="Menlo" font-size="10.00">0x1</text>
<polyline fill="none" stroke="black" points="224.533,-215.141 413.066,-215.141 "/>
<text text-anchor="start" x="232.533" y="-203.141" font-family="Menlo" font-size="10.00">result_ptr</text>
<polyline fill="none" stroke="black" points="339.738,-195.5 339.738,-215.141 "/>
<text text-anchor="end" x="404.8" y="-203.141" font-family="Menlo" font-size="10.00">0x0</text>
</g>
<!-- node0&#45;&gt;node2 -->
<g id="edge2" class="edge"><title>node0:external&#45;&gt;node2:descr</title>
<path fill="none" stroke="black" d="M188.533,-341.602C214.606,-341.602 200.047,-298.767 214.692,-286.72"/>
<polygon fill="black" stroke="black" points="216.058,-289.959 224.533,-283.602 213.943,-283.286 216.058,-289.959"/>
</g>
<!-- node3 -->
<g id="node4" class="node"><title>node3</title>
<polygon fill="none" stroke="black" points="224.533,-78.5 224.533,-176.703 413.066,-176.703 413.066,-78.5 224.533,-78.5"/>
<text text-anchor="start" x="232.533" y="-164.703" font-family="Menlo" font-size="10.00">Normal node &#45; 192.0.0.0/4 </text>
<polyline fill="none" stroke="black" points="224.533,-157.062 413.066,-157.062 "/>
<text text-anchor="start" x="232.533" y="-145.062" font-family="Menlo" font-size="10.00">internal &#160;</text>
<polyline fill="none" stroke="black" points="300.738,-137.422 300.738,-157.062 "/>
<text text-anchor="end" x="405.066" y="-145.062" font-family="Menlo" font-size="10.00">0000000000000000</text>
<polyline fill="none" stroke="black" points="224.533,-137.422 413.066,-137.422 "/>
<text text-anchor="start" x="232.533" y="-125.422" font-family="Menlo" font-size="10.00">external &#160;</text>
<polyline fill="none" stroke="black" points="300.738,-117.781 300.738,-137.422 "/>
<text text-anchor="end" x="405.066" y="-125.422" font-family="Menlo" font-size="10.00">1000000000000000</text>
<polyline fill="none" stroke="black" points="224.533,-117.781 413.066,-117.781 "/>
<text text-anchor="start" x="232.533" y="-105.781" font-family="Menlo" font-size="10.00">child_ptr </text>
<polyline fill="none" stroke="black" points="339.738,-98.1406 339.738,-117.781 "/>
<text text-anchor="end" x="404.8" y="-105.781" font-family="Menlo" font-size="10.00">0x2</text>
<polyline fill="none" stroke="black" points="224.533,-98.1406 413.066,-98.1406 "/>
<text text-anchor="start" x="232.533" y="-86.1406" font-family="Menlo" font-size="10.00">result_ptr</text>
<polyline fill="none" stroke="black" points="339.738,-78.5 339.738,-98.1406 "/>
<text text-anchor="end" x="404.8" y="-86.1406" font-family="Menlo" font-size="10.00">0x0</text>
</g>
<!-- node0&#45;&gt;node3 -->
<g id="edge3" class="edge"><title>node0:external&#45;&gt;node3:descr</title>
<path fill="none" stroke="black" d="M188.533,-341.602C264.062,-341.602 156.638,-183.274 214.301,-167.813"/>
<polygon fill="black" stroke="black" points="215.014,-171.253 224.533,-166.602 214.191,-164.301 215.014,-171.253"/>
</g>
<!-- result0 -->
<g id="node8" class="node"><title>result0</title>
<polygon fill="none" stroke="black" points="271.667,-429.961 271.667,-469.242 365.933,-469.242 365.933,-429.961 271.667,-429.961"/>
<text text-anchor="middle" x="318.8" y="-457.242" font-family="Menlo" font-size="10.00">Result @ 0x0</text>
<polyline fill="none" stroke="black" points="271.667,-449.602 365.933,-449.602 "/>
<text text-anchor="middle" x="318.8" y="-437.602" font-family="Menlo" font-size="10.00">0.0.0.0/0 foo</text>
</g>
<!-- node0&#45;&gt;result0 -->
<g id="edge7" class="edge"><title>node0:internal&#45;&gt;result0</title>
<path fill="none" stroke="black" d="M188.533,-361.602C219.251,-361.602 200.308,-401.714 224.533,-420.602 235.296,-428.993 248.51,-434.974 261.571,-439.232"/>
<polygon fill="black" stroke="black" points="260.903,-442.684 271.485,-442.163 262.887,-435.971 260.903,-442.684"/>
</g>
<!-- result1 -->
<g id="node9" class="node"><title>result1</title>
<polygon fill="none" stroke="black" points="493.189,-341.961 493.189,-381.242 593.477,-381.242 593.477,-341.961 493.189,-341.961"/>
<text text-anchor="middle" x="543.333" y="-369.242" font-family="Menlo" font-size="10.00">Result @ 0x1</text>
<polyline fill="none" stroke="black" points="493.189,-361.602 593.477,-361.602 "/>
<text text-anchor="middle" x="543.333" y="-349.602" font-family="Menlo" font-size="10.00">10.0.0.0/8 bar</text>
</g>
<!-- node1&#45;&gt;result1 -->
<g id="edge8" class="edge"><title>node1:external&#45;&gt;result1</title>
<path fill="none" stroke="black" d="M413.066,-361.602C435.831,-361.602 460.85,-361.602 482.763,-361.602"/>
<polygon fill="black" stroke="black" points="482.92,-365.102 492.92,-361.602 482.919,-358.102 482.92,-365.102"/>
</g>
<!-- node4 -->
<g id="node5" class="node"><title>node4</title>
<polygon fill="none" stroke="black" points="449.066,-156.5 449.066,-254.703 637.6,-254.703 637.6,-156.5 449.066,-156.5"/>
<text text-anchor="start" x="457.066" y="-242.703" font-family="Menlo" font-size="10.00">END node &#45; 172.0.0.0/8 </text>
<polyline fill="none" stroke="black" points="449.066,-235.062 637.6,-235.062 "/>
<text text-anchor="start" x="457.066" y="-223.062" font-family="Menlo" font-size="10.00">internal &#160;</text>
<polyline fill="none" stroke="black" points="525.271,-215.422 525.271,-235.062 "/>
<text text-anchor="end" x="629.6" y="-223.062" font-family="Menlo" font-size="10.00">0000000000000001</text>
<polyline fill="none" stroke="black" points="449.066,-215.422 637.6,-215.422 "/>
<text text-anchor="start" x="457.066" y="-203.422" font-family="Menlo" font-size="10.00">internal2 </text>
<polyline fill="none" stroke="black" points="525.271,-195.781 525.271,-215.422 "/>
<text text-anchor="end" x="629.6" y="-203.422" font-family="Menlo" font-size="10.00">0100000000000000</text>
<polyline fill="none" stroke="black" points="449.066,-195.781 637.6,-195.781 "/>
<text text-anchor="start" x="457.066" y="-183.781" font-family="Menlo" font-size="10.00">child_ptr </text>
<polyline fill="none" stroke="black" points="564.271,-176.141 564.271,-195.781 "/>
<text text-anchor="end" x="629.333" y="-183.781" font-family="Menlo" font-size="10.00">NUL</text>
<polyline fill="none" stroke="black" points="449.066,-176.141 637.6,-176.141 "/>
<text text-anchor="start" x="457.066" y="-164.141" font-family="Menlo" font-size="10.00">result_ptr</text>
<polyline fill="none" stroke="black" points="564.271,-156.5 564.271,-176.141 "/>
<text text-anchor="end" x="629.333" y="-164.141" font-family="Menlo" font-size="10.00">0x2</text>
</g>
<!-- node2&#45;&gt;node4 -->
<g id="edge4" class="edge"><title>node2:external&#45;&gt;node4:descr</title>
<path fill="none" stroke="black" d="M413.066,-244.602C425.066,-244.602 430.316,-244.602 438.941,-244.602"/>
<polygon fill="black" stroke="black" points="439.066,-248.102 449.066,-244.602 439.066,-241.102 439.066,-248.102"/>
</g>
<!-- node5 -->
<g id="node6" class="node"><title>node5</title>
<polygon fill="none" stroke="black" points="449.066,-39.5 449.066,-137.703 637.6,-137.703 637.6,-39.5 449.066,-39.5"/>
<text text-anchor="start" x="457.066" y="-125.703" font-family="Menlo" font-size="10.00">Normal node &#45; 192.0.0.0/8 </text>
<polyline fill="none" stroke="black" points="449.066,-118.062 637.6,-118.062 "/>
<text text-anchor="start" x="457.066" y="-106.062" font-family="Menlo" font-size="10.00">internal &#160;</text>
<polyline fill="none" stroke="black" points="525.271,-98.4219 525.271,-118.062 "/>
<text text-anchor="end" x="629.6" y="-106.062" font-family="Menlo" font-size="10.00">0000000000000000</text>
<polyline fill="none" stroke="black" points="449.066,-98.4219 637.6,-98.4219 "/>
<text text-anchor="start" x="457.066" y="-86.4219" font-family="Menlo" font-size="10.00">external &#160;</text>
<polyline fill="none" stroke="black" points="525.271,-78.7812 525.271,-98.4219 "/>
<text text-anchor="end" x="629.6" y="-86.4219" font-family="Menlo" font-size="10.00">0000000000100000</text>
<polyline fill="none" stroke="black" points="449.066,-78.7812 637.6,-78.7812 "/>
<text text-anchor="start" x="457.066" y="-66.7812" font-family="Menlo" font-size="10.00">child_ptr </text>
<polyline fill="none" stroke="black" points="564.271,-59.1406 564.271,-78.7812 "/>
<text text-anchor="end" x="629.333" y="-66.7812" font-family="Menlo" font-size="10.00">0x3</text>
<polyline fill="none" stroke="black" points="449.066,-59.1406 637.6,-59.1406 "/>
<text text-anchor="start" x="457.066" y="-47.1406" font-family="Menlo" font-size="10.00">result_ptr</text>
<polyline fill="none" stroke="black" points="564.271,-39.5 564.271,-59.1406 "/>
<text text-anchor="end" x="629.333" y="-47.1406" font-family="Menlo" font-size="10.00">0x0</text>
</g>
<!-- node3&#45;&gt;node5 -->
<g id="edge5" class="edge"><title>node3:external&#45;&gt;node5:descr</title>
<path fill="none" stroke="black" d="M413.066,-127.602C425.066,-127.602 430.316,-127.602 438.941,-127.602"/>
<polygon fill="black" stroke="black" points="439.066,-131.102 449.066,-127.602 439.066,-124.102 439.066,-131.102"/>
</g>
<!-- result2 -->
<g id="node10" class="node"><title>result2</title>
<polygon fill="none" stroke="black" points="708.692,-185.961 708.692,-225.242 827.041,-225.242 827.041,-185.961 708.692,-185.961"/>
<text text-anchor="middle" x="767.866" y="-213.242" font-family="Menlo" font-size="10.00">Result @ 0x2</text>
<polyline fill="none" stroke="black" points="708.692,-205.602 827.041,-205.602 "/>
<text text-anchor="middle" x="767.866" y="-193.602" font-family="Menlo" font-size="10.00">172.16.0.0/12 baz</text>
</g>
<!-- node4&#45;&gt;result2 -->
<g id="edge9" class="edge"><title>node4:external&#45;&gt;result2</title>
<path fill="none" stroke="black" d="M637.6,-205.602C657.379,-205.602 678.862,-205.602 698.529,-205.602"/>
<polygon fill="black" stroke="black" points="698.631,-209.102 708.63,-205.602 698.63,-202.102 698.631,-209.102"/>
</g>
<!-- node6 -->
<g id="node7" class="node"><title>node6</title>
<polygon fill="none" stroke="black" points="673.6,-0.5 673.6,-98.7031 862.133,-98.7031 862.133,-0.5 673.6,-0.5"/>
<text text-anchor="start" x="681.6" y="-86.7031" font-family="Menlo" font-size="10.00">END node &#45; 192.160.0.0/12 </text>
<polyline fill="none" stroke="black" points="673.6,-79.0625 862.133,-79.0625 "/>
<text text-anchor="start" x="681.6" y="-67.0625" font-family="Menlo" font-size="10.00">internal &#160;</text>
<polyline fill="none" stroke="black" points="749.805,-59.4219 749.805,-79.0625 "/>
<text text-anchor="end" x="854.133" y="-67.0625" font-family="Menlo" font-size="10.00">0000000000000001</text>
<polyline fill="none" stroke="black" points="673.6,-59.4219 862.133,-59.4219 "/>
<text text-anchor="start" x="681.6" y="-47.4219" font-family="Menlo" font-size="10.00">internal2 </text>
<polyline fill="none" stroke="black" points="749.805,-39.7812 749.805,-59.4219 "/>
<text text-anchor="end" x="854.133" y="-47.4219" font-family="Menlo" font-size="10.00">0000000010000000</text>
<polyline fill="none" stroke="black" points="673.6,-39.7812 862.133,-39.7812 "/>
<text text-anchor="start" x="681.6" y="-27.7812" font-family="Menlo" font-size="10.00">child_ptr </text>
<polyline fill="none" stroke="black" points="788.805,-20.1406 788.805,-39.7812 "/>
<text text-anchor="end" x="853.866" y="-27.7812" font-family="Menlo" font-size="10.00">NUL</text>
<polyline fill="none" stroke="black" points="673.6,-20.1406 862.133,-20.1406 "/>
<text text-anchor="start" x="681.6" y="-8.14062" font-family="Menlo" font-size="10.00">result_ptr</text>
<polyline fill="none" stroke="black" points="788.805,-0.5 788.805,-20.1406 "/>
<text text-anchor="end" x="853.866" y="-8.14062" font-family="Menlo" font-size="10.00">0x3</text>
</g>
<!-- node5&#45;&gt;node6 -->
<g id="edge6" class="edge"><title>node5:external&#45;&gt;node6:descr</title>
<path fill="none" stroke="black" d="M637.6,-88.6016C649.6,-88.6016 654.85,-88.6016 663.475,-88.6016"/>
<polygon fill="black" stroke="black" points="663.6,-92.1017 673.6,-88.6016 663.6,-85.1017 663.6,-92.1017"/>
</g>
<!-- result3 -->
<g id="node11" class="node"><title>result3</title>
<polygon fill="none" stroke="black" points="898.133,-29.9609 898.133,-69.2422 1028.52,-69.2422 1028.52,-29.9609 898.133,-29.9609"/>
<text text-anchor="middle" x="963.328" y="-57.2422" font-family="Menlo" font-size="10.00">Result @ 0x3</text>
<polyline fill="none" stroke="black" points="898.133,-49.6016 1028.52,-49.6016 "/>
<text text-anchor="middle" x="963.328" y="-37.6016" font-family="Menlo" font-size="10.00">192.168.0.0/16 quux</text>
</g>
<!-- node6&#45;&gt;result3 -->
<g id="edge10" class="edge"><title>node6:external&#45;&gt;result3</title>
<path fill="none" stroke="black" d="M862.133,-49.6016C870.447,-49.6016 879.149,-49.6016 887.805,-49.6016"/>
<polygon fill="black" stroke="black" points="887.919,-53.1017 897.919,-49.6016 887.918,-46.1017 887.919,-53.1017"/>
</g>
</g>
</svg>
